Coordinates
version=1
nRows=60
nColumns=12
inDegrees=yes

Units are S.I. units (second, meters, Newtons, ...)
Angles are in degrees

endheader
time	SC_y	SC_z	SC_x	AC_y	AC_z	AC_x	GH_y	GH_z	GH_yy	EL_x	PS_y
       0.0              -25.15          15.24          15.17          66.29         -10.99          10.69         -173.1           66.7          151.4          35.98          22.76
   0.02478              -25.15          15.24          15.18          66.28         -10.98          10.69         -173.1           66.7          151.3          35.99          22.77
   0.04955              -25.15          15.24          15.19          66.28         -10.98          10.69         -173.1           66.7          151.3           36.0          22.77
   0.07433              -25.15          15.24          15.19          66.28         -10.98          10.69         -173.1          66.69          151.3          36.02          22.77
   0.09911              -25.15          15.24           15.2          66.28         -10.98          10.68         -173.0          66.69          151.3          36.03          22.78
    0.1239              -25.15          15.23          15.21          66.27         -10.98          10.68         -173.0          66.69          151.2          36.05          22.78
    0.1487              -25.15          15.23          15.21          66.27         -10.97          10.68         -173.0          66.68          151.2          36.07          22.79
    0.1734              -25.15          15.23          15.22          66.27         -10.97          10.67         -172.9          66.68          151.2          36.09          22.79
    0.1982              -25.15          15.23          15.23          66.26         -10.97          10.67         -172.9          66.67          151.1          36.11           22.8
     0.223              -25.15          15.22          15.24          66.26         -10.97          10.66         -172.9          66.67          151.1          36.13           22.8
    0.2478              -25.15          15.22          15.25          66.26         -10.96          10.66         -172.9          66.66          151.1          36.15          22.81
    0.2725              -25.15          15.22          15.26          66.25         -10.96          10.65         -172.8          66.66          151.0          36.18          22.82
    0.2973              -25.15          15.21          15.27          66.25         -10.96          10.65         -172.8          66.65          151.0           36.2          22.83
    0.3221              -25.15          15.21          15.28          66.24         -10.95          10.64         -172.7          66.64          150.9          36.23          22.83
    0.3469              -25.16           15.2           15.3          66.24         -10.95          10.63         -172.7          66.64          150.9          36.26          22.84
    0.3716              -25.16           15.2          15.31          66.23         -10.95          10.63         -172.6          66.63          150.8           36.3          22.85
    0.3964              -25.16          15.19          15.33          66.22         -10.94          10.62         -172.6          66.62          150.7          36.34          22.86
    0.4212              -25.16          15.19          15.35          66.22         -10.94          10.61         -172.5          66.61          150.7          36.38          22.87
     0.446              -25.16          15.18          15.37          66.21         -10.93           10.6         -172.4           66.6          150.6          36.42          22.89
    0.4708              -25.16          15.18          15.39           66.2         -10.93          10.59         -172.4          66.59          150.5          36.47           22.9
    0.4955              -25.16          15.17          15.41          66.19         -10.92          10.58         -172.3          66.58          150.4          36.52          22.91
    0.5203              -25.17          15.16          15.43          66.18         -10.91          10.57         -172.2          66.56          150.3          36.58          22.93
    0.5451              -25.17          15.15          15.46          66.17         -10.91          10.55         -172.1          66.55          150.2          36.65          22.95
    0.5699              -25.17          15.14          15.49          66.16          -10.9          10.54         -172.0          66.53          150.1          36.72          22.97
    0.5946              -25.17          15.13          15.53          66.14         -10.89          10.52         -171.9          66.51          149.9           36.8          22.99
    0.6194              -25.17          15.12          15.57          66.13         -10.88           10.5         -171.7          66.49          149.8          36.89          23.02
    0.6442              -25.18           15.1          15.61          66.11         -10.87          10.48         -171.6          66.47          149.6          36.98          23.04
     0.669              -25.18          15.09          15.66          66.09         -10.85          10.46         -171.4          66.44          149.4           37.1          23.08
    0.6937              -25.19          15.07          15.71          66.07         -10.84          10.43         -171.2          66.41          149.2          37.22          23.11
    0.7185              -25.19          15.05          15.77          66.04         -10.82           10.4         -171.0          66.38          149.0          37.37          23.15
    0.7433               -25.2          15.03          15.84          66.02          -10.8          10.37         -170.8          66.34          148.7          37.53           23.2
    0.7681               -25.2           15.0          15.92          65.98         -10.78          10.33         -170.5           66.3          148.4          37.72          23.25
    0.7928              -25.21          14.97          16.02          65.95         -10.75          10.28         -170.1          66.25          148.0          37.94          23.31
    0.8176              -25.22          14.93          16.13           65.9         -10.72          10.23         -169.8          66.19          147.6          38.19          23.38
    0.8424              -25.23          14.89          16.25          65.85         -10.69          10.17         -169.3          66.12          147.0          38.48          23.46
    0.8672              -25.24          14.84           16.4          65.79         -10.64          10.09         -168.8          66.04          146.4          38.83          23.56
     0.892              -25.25          14.78          16.58          65.72          -10.6          10.01         -168.2          65.95          145.7          39.24          23.68
    0.9167              -25.27          14.71           16.8          65.63         -10.54          9.901         -167.4          65.83          144.9          39.74          23.81
    0.9415              -25.29          14.63          17.05          65.53         -10.46          9.774         -166.5          65.69          143.9          40.34          23.98
    0.9663              -25.31          14.53          17.37           65.4         -10.38           9.62         -165.4          65.52          142.6          41.07          24.19
    0.9911              -25.34           14.4          17.76          65.24         -10.27          9.429         -164.0          65.31          141.0          41.97          24.44
     1.016              -25.37          14.24          18.24          65.05         -10.14          9.191         -162.3          65.05          139.1           43.1          24.76
     1.041              -25.42          14.04          18.86           64.8         -9.966          8.892         -160.2          64.72          136.7          44.52          25.15
     1.065              -25.48          13.79          19.63          64.49         -9.751          8.511         -157.4           64.3          133.6          46.33          25.66
      1.09              -25.55          13.46          20.63          64.09         -9.475          8.023         -153.9          63.76          129.6          48.64           26.3
     1.115              -25.64          13.04          21.91          63.57         -9.121          7.398         -149.4          63.07          124.5           51.6          27.13
      1.14              -25.77          12.51          23.54          62.91         -8.669          6.599         -143.7          62.19          118.0          55.39          28.19
     1.164              -25.92          11.84          25.59          62.09         -8.101          5.594         -136.4          61.09          109.8          60.15          29.53
     1.189               -26.1          11.02          28.09          61.08         -7.409           4.37         -127.6          59.74          99.82          65.95          31.15
     1.214              -26.32          10.07          30.99          59.91         -6.607          2.951         -117.4          58.18          88.26          72.68          33.03
     1.239              -26.55          9.047          34.12          58.65         -5.738          1.414         -106.4          56.49          75.74          79.96          35.07
     1.264              -26.78          8.021          37.26          57.38         -4.869        -0.1225         -95.34          54.79          63.21          87.24           37.1
     1.288               -27.0          7.073          40.16          56.22         -4.067         -1.542         -85.14          53.23          51.65          93.97          38.99
     1.313              -27.18          6.255          42.66          55.21         -3.375         -2.766         -76.34          51.88          41.68          99.77          40.61
     1.338              -27.33          5.584          44.71          54.38         -2.807         -3.771         -69.11          50.78          33.49          104.5          41.94
     1.363              -27.45          5.051          46.34          53.72         -2.355          -4.57         -63.37           49.9          26.98          108.3           43.0
     1.387              -27.55          4.633          47.62          53.21         -2.001         -5.195         -58.87          49.21          21.88          111.3          43.83
     1.412              -27.62          4.307          48.61          52.81         -1.725         -5.683         -55.37          48.67          17.91          113.6          44.48
     1.437              -27.68          4.053          49.39          52.49          -1.51         -6.063         -52.63          48.25          14.81          115.4          44.98
     1.462              -27.73          3.853           50.0          52.25         -1.341         -6.363         -50.48          47.92          12.37          116.8          45.38
